<?xml version="1.0" encoding="iso-8859-1"?>
<!-- Generator: Adobe Illustrator 19.0.0, SVG Export Plug-In . SVG Version: 6.00 Build 0)  -->
<svg version="1.1" id="Capa_1" xmlns="http://www.w3.org/2000/svg" xmlns:xlink="http://www.w3.org/1999/xlink" x="0px" y="0px"
	 viewBox="0 0 512 512" style="enable-background:new 0 0 512 512;" xml:space="preserve">
<g>
	<g>
		<path d="M471.056,228.898V139.37c0-24.813-20.187-45-45-45H85.944c-24.813,0-45,20.187-45,45v89.528
			C16.501,242.992,0,269.378,0,299.563v40.896c0,8.284,6.716,15,15,15h14.804v22.337c0,21.965,17.87,39.835,39.835,39.835
			c21.965,0,39.835-17.87,39.835-39.835v-22.337h293.052v22.337c0,21.965,17.87,39.835,39.835,39.835
			c21.965,0,39.835-17.87,39.835-39.835v-22.337H497c8.284,0,15-6.716,15-15v-40.896C512,269.378,495.499,242.992,471.056,228.898z
			 M70.945,139.37c-0.001-8.271,6.728-15,14.999-15h340.111c8.271,0,15,6.729,15,15v79.373c-3.468-0.452-6.996-0.71-10.584-0.71
			h-6.108c0.854-3.444,1.316-7.042,1.316-10.747v-8.592c0-24.627-20.036-44.664-44.664-44.664h-75.482
			c-24.627,0-44.664,20.036-44.664,44.664v8.592c0,3.705,0.461,7.303,1.316,10.747h-12.37c0.854-3.444,1.316-7.042,1.316-10.747
			v-8.592c0-24.627-20.036-44.664-44.664-44.664h-75.482c-24.627,0-44.664,20.036-44.664,44.664v8.592
			c0,3.705,0.461,7.303,1.316,10.747h-6.108c-3.589,0-7.117,0.258-10.584,0.71V139.37z M395.679,198.695v8.592
			c0,4.247-1.826,8.067-4.721,10.747H295.59c-2.895-2.681-4.721-6.5-4.721-10.747v-8.592c0-8.085,6.578-14.664,14.664-14.664h75.482
			C389.1,184.031,395.679,190.609,395.679,198.695z M221.131,198.695v8.592c0,4.247-1.826,8.067-4.721,10.747h-95.367
			c-2.896-2.681-4.722-6.5-4.722-10.747v-8.592c0-8.085,6.578-14.664,14.664-14.664h75.482
			C214.552,184.031,221.131,190.609,221.131,198.695z M79.474,377.794c0,5.423-4.412,9.835-9.835,9.835
			c-5.423,0-9.835-4.412-9.835-9.835v-22.337h19.67V377.794z M452.196,377.794c0,5.423-4.412,9.835-9.835,9.835
			c-5.423,0-9.835-4.412-9.835-9.835v-22.337h19.67V377.794z M482,325.458H30v-25.896c0-28.413,23.116-51.529,51.529-51.529h348.942
			c28.413,0,51.529,23.115,51.529,51.529V325.458z"/>
	</g>
</g>
<g>
</g>
<g>
</g>
<g>
</g>
<g>
</g>
<g>
</g>
<g>
</g>
<g>
</g>
<g>
</g>
<g>
</g>
<g>
</g>
<g>
</g>
<g>
</g>
<g>
</g>
<g>
</g>
<g>
</g>
</svg>
